<?xml version="1.0" standalone="no"?>
<!DOCTYPE svg PUBLIC "-//W3C//DTD SVG 20010904//EN"
 "http://www.w3.org/TR/2001/REC-SVG-20010904/DTD/svg10.dtd">
<svg version="1.0" xmlns="http://www.w3.org/2000/svg"
 width="156.000000pt" height="200.000000pt" viewBox="0 0 156.000000 200.000000"
 preserveAspectRatio="xMidYMid meet">

<g transform="translate(0.000000,200.000000) scale(0.100000,-0.100000)"
fill="#000000" stroke="none">
<path d="M0 1000 l0 -1000 780 0 780 0 0 1000 0 1000 -780 0 -780 0 0 -1000z
m543 803 c14 -43 73 -239 133 -436 l108 -359 49 164 c27 89 85 286 129 436
l81 272 194 0 193 0 0 -655 0 -655 -130 0 -130 0 -2 443 -3 442 -126 -440
-126 -440 -131 -3 c-73 -1 -132 0 -132 2 0 11 -251 880 -255 885 -3 2 -5 -197
-5 -442 l0 -447 -130 0 -130 0 0 655 0 655 195 0 194 0 24 -77z m377 -1328 c0
-31 3 -35 25 -35 20 0 25 -5 25 -25 0 -20 -5 -25 -25 -25 -26 0 -26 -1 -23
-72 3 -68 5 -73 26 -76 19 -3 23 -9 20 -30 -3 -25 -6 -27 -42 -25 -60 4 -66
14 -66 110 0 76 -2 85 -20 90 -13 3 -20 14 -20 29 0 17 6 24 20 24 16 0 20 7
20 35 0 32 2 35 30 35 28 0 30 -3 30 -35z m-730 -57 c0 -20 1 -21 20 -3 25 23
95 24 118 2 15 -15 17 -15 34 -1 10 10 34 16 60 16 34 -1 48 -7 66 -27 20 -23
22 -37 22 -126 l0 -99 -35 0 -35 0 0 95 c0 84 -2 95 -20 105 -47 25 -70 -24
-70 -151 0 -47 -1 -49 -29 -49 l-28 0 -6 96 c-5 95 -13 113 -44 114 -32 0 -43
-31 -43 -121 l0 -89 -35 0 -35 0 0 123 c0 68 3 127 7 130 3 4 17 7 30 7 17 0
23 -6 23 -22z m548 -1 c26 -13 46 -46 57 -94 l7 -33 -91 0 c-50 0 -91 -3 -91
-7 0 -4 10 -17 22 -30 25 -26 60 -30 78 -8 13 15 70 21 70 8 0 -5 -8 -18 -18
-29 -79 -98 -242 -16 -218 110 9 47 33 74 81 91 41 14 62 13 103 -8z m332 3
c0 -19 2 -19 23 -6 12 8 32 17 45 21 19 6 22 3 22 -24 0 -24 -4 -31 -19 -31
-10 0 -28 -8 -40 -17 -17 -15 -21 -31 -23 -98 l-3 -80 -32 -3 -33 -3 0 130 0
131 30 0 c23 0 30 -4 30 -20z m303 -2 c35 -14 57 -55 57 -108 0 -104 -86 -157
-186 -115 -69 29 -85 146 -29 205 38 39 86 45 158 18z"/>
<path d="M635 370 c-24 -27 -17 -32 46 -28 l54 3 -22 23 c-28 27 -54 28 -78 2z"/>
<path d="M1267 372 c-24 -27 -22 -97 3 -122 42 -42 93 -10 93 60 0 69 -57 105
-96 62z"/>
</g>
</svg>
